# xmcd
#
# Track frame offsets:
#	150
#	16305
#	31477
#	48222
#	52635
#	72647
#	84987
#	92940
#	107762
#	120462
#	133130
#	144902
#	154280
#
# Disc length: 2171 seconds
#
# Revision: 2
# Processed by: cddbd v1.4PL0 Copyright (c) Steve Scherf et al.
# Submitted via: EZCDDA 4.3.2
#
DISCID=a808790d
DTITLE=Maria Bethânia - A Força que Nunca Seca Ao Vivo [CD1)
DYEAR=1900
DGENRE=
TTITLE0=Senhora do Vento Norte
TTITLE1=Vida
TTITLE2=Cacilda
TTITLE3=O Tempo e o Rio
TTITLE4=Morena do Mar
TTITLE5=Dois de Fevereiro
TTITLE6=Recôncavo
TTITLE7=Luar do Sertão
TTITLE8=O Trenzinho Caipira
TTITLE9=Romaria
TTITLE10=Assombrações
TTITLE11=As Ayabás
TTITLE12=Doce Mistério da Vida
EXTD=
EXTT0=
EXTT1=
EXTT2=
EXTT3=
EXTT4=
EXTT5=
EXTT6=
EXTT7=
EXTT8=
EXTT9=
EXTT10=
EXTT11=
EXTT12=
PLAYORDER=
